<mxfile host="app.diagrams.net" modified="2023-10-21T14:01:44.117Z" agent="Mozilla/5.0 (X11; Linux x86_64) AppleWebKit/537.36 (KHTML, like Gecko) Chrome/118.0.0.0 Safari/537.36" version="22.0.6" etag="ZeV_YhrXRxIIAUFyw-gr" type="github">
  <diagram name="Sivu-1" id="s9g3bFqv5zFFsAAoJh_R">
    <mxGraphModel>
      <root>
        <mxCell id="0" />
        <mxCell id="1" parent="0" />
      </root>
    </mxGraphModel>
  </diagram>
</mxfile>
